<svg width="28" height="27" viewBox="0 0 28 27" fill="none" xmlns="http://www.w3.org/2000/svg">
<path d="M27.8945 13.3458L24.8169 9.78001L27.8945 6.21426C27.9803 6.11537 28.0162 5.98342 27.9932 5.85486C27.9701 5.7263 27.8897 5.61516 27.7749 5.55194L17.8106 0.0547621C17.641 -0.0389981 17.4291 -0.0101488 17.2902 0.12606L14.2638 3.10557L11.2648 0.12732C11.1247 -0.0118432 10.9076 -0.040258 10.7363 0.0585856L0.218393 6.10564C0.095806 6.17607 0.0150437 6.30124 0.0017977 6.44167C-0.0110312 6.58209 0.0453624 6.7196 0.153031 6.81123L3.71704 9.84488L0.641367 13.9173C0.565329 14.0174 0.537111 14.1456 0.563623 14.2686C0.589698 14.3913 0.668273 14.4965 0.77896 14.5576L3.84324 16.2482C3.83012 16.2896 3.81708 16.3313 3.81708 16.3769V20.3963C3.81708 20.927 4.10461 21.4222 4.56818 21.6891L13.4711 26.7934C13.7108 26.9304 13.9791 26.9991 14.2478 26.9991C14.2505 26.9991 14.253 26.9987 14.2556 26.9987C14.258 26.9987 14.26 27 14.2624 27C14.267 27 14.2708 26.9975 14.2754 26.9974C14.5349 26.9928 14.7935 26.9257 15.025 26.7934L23.9006 21.7044C24.3804 21.4286 24.6786 20.9152 24.6786 20.3653V15.8879L27.7906 13.9992C27.9 13.9326 27.9748 13.8218 27.9944 13.6963C28.0145 13.5707 27.9782 13.4421 27.8945 13.3458ZM13.8249 14.5313L5.18111 9.76229L13.8249 4.51645V14.5313ZM14.6999 4.49881L23.3727 9.76229L14.6999 14.5474V4.49881ZM17.6731 0.972943L26.8815 6.05303L24.1516 9.21641L14.9634 3.64029L17.6731 0.972943ZM10.8837 0.977592L13.5746 3.64989L4.35564 9.24465L1.19082 6.55072L10.8837 0.977592ZM4.43369 10.3437L13.6072 15.405L10.8329 19.1107L1.64242 14.0399L4.43369 10.3437ZM5.00612 20.9368C4.81257 20.8253 4.69208 20.6182 4.69208 20.3963V16.7166L10.7432 20.0551C10.8102 20.0921 10.8829 20.1099 10.955 20.1099C11.0897 20.1099 11.2217 20.0484 11.3067 19.9347L13.8249 16.5709V25.9929L5.00612 20.9368ZM23.8036 20.3653C23.8036 20.6063 23.6729 20.8312 23.4627 20.9521L14.6999 25.9765V16.5615L17.2484 19.9359C17.3338 20.0492 17.465 20.1099 17.5987 20.1099C17.6765 20.1099 17.7555 20.0891 17.8264 20.0462L23.8036 16.4188V20.3653ZM17.7098 19.0988L14.9277 15.4154L24.1415 10.3318L26.896 13.5236L17.7098 19.0988Z" fill="white"/>
</svg>
