<svg width="24" height="35" viewBox="0 0 24 35" fill="none" xmlns="http://www.w3.org/2000/svg">
<path d="M5.324 12.242V18.416C5.324 19.284 5.534 19.928 5.954 20.348C6.38333 20.768 6.976 20.978 7.732 20.978C8.47867 20.978 9.062 20.768 9.482 20.348C9.91133 19.928 10.126 19.284 10.126 18.416V12.242H11.4V18.402C11.4 19.214 11.2367 19.9 10.91 20.46C10.5833 21.0107 10.14 21.4213 9.58 21.692C9.02933 21.9627 8.40867 22.098 7.718 22.098C7.02733 22.098 6.402 21.9627 5.842 21.692C5.29133 21.4213 4.85267 21.0107 4.526 20.46C4.20867 19.9 4.05 19.214 4.05 18.402V12.242H5.324ZM17.5153 17.128L20.5113 22H19.0693L16.7313 18.192L14.5053 22H13.0913L16.0733 17.128L13.0773 12.242H14.5053L16.8573 16.064L19.0973 12.242H20.5253L17.5153 17.128Z" fill="white"/>
<rect x="0.5" y="5.5" width="23" height="23" rx="6.5" stroke="white"/>
</svg>
