<svg width="35" height="35" viewBox="0 0 35 35" fill="none" xmlns="http://www.w3.org/2000/svg">
<path d="M17.4999 0C13.3445 0.000176673 9.32479 1.51636 6.15994 4.27725C2.99509 7.03814 0.891668 10.8636 0.226029 15.0691C-0.43961 19.2746 0.375976 23.5857 2.52685 27.2311C4.67773 30.8764 8.02354 33.6182 11.9656 34.9657C12.8406 35.1227 13.1687 34.5844 13.1687 34.1134C13.1687 33.6873 13.1468 32.2743 13.1468 30.7716C8.74999 31.6014 7.61249 29.6727 7.2625 28.6634C6.87413 27.6818 6.25849 26.8119 5.46876 26.1289C4.85626 25.7925 3.98127 24.9627 5.44687 24.9403C6.00649 25.0025 6.54323 25.2022 7.0116 25.5223C7.47998 25.8425 7.86618 26.2736 8.13749 26.7793C8.37684 27.2202 8.69868 27.6083 9.08457 27.9214C9.47045 28.2345 9.91281 28.4664 10.3863 28.6039C10.8598 28.7414 11.355 28.7818 11.8438 28.7227C12.3325 28.6636 12.805 28.5063 13.2343 28.2596C13.3101 27.3474 13.7065 26.4946 14.3499 25.8598C10.4562 25.4113 6.3875 23.8637 6.3875 17.0007C6.36291 15.2174 7.0047 13.4921 8.18124 12.1786C7.64624 10.6288 7.70884 8.92791 8.35624 7.42381C8.35624 7.42381 9.8218 6.9528 13.1687 9.26293C16.0322 8.45546 19.0552 8.45546 21.9186 9.26293C25.2655 6.93039 26.7311 7.42381 26.7311 7.42381C27.3786 8.92789 27.4412 10.6288 26.9061 12.1786C28.0862 13.4899 28.7285 15.2167 28.6998 17.0007C28.6998 23.8861 24.6092 25.4113 20.7155 25.8598C21.1332 26.2939 21.4548 26.8149 21.6586 27.3877C21.8625 27.9604 21.9437 28.5714 21.8968 29.1792C21.8968 31.5791 21.8749 33.5078 21.8749 34.1134C21.8749 34.5845 22.203 35.1451 23.078 34.9657C27.0131 33.6072 30.3493 30.8591 32.491 27.2119C34.6328 23.5646 35.4406 19.2557 34.7703 15.0543C34.1001 10.8529 31.9954 7.03238 28.8319 4.27485C25.6684 1.51732 21.6521 0.00221575 17.4999 0V0Z" fill="white"/>
</svg>
