<svg width="35" height="35" viewBox="0 0 35 35" fill="none" xmlns="http://www.w3.org/2000/svg">
<path d="M34.911 10.2901C34.829 8.43044 34.5282 7.15192 34.0974 6.04406C33.6528 4.8681 32.969 3.81526 32.073 2.94004C31.1976 2.05119 30.1376 1.36051 28.9751 0.923035C27.8606 0.492232 26.5885 0.191498 24.7285 0.109503C22.8545 0.0205653 22.2596 0 17.5068 0C12.754 0 12.1591 0.0205653 10.2921 0.102559C8.43204 0.184554 7.15328 0.485555 6.04548 0.916091C4.86903 1.36051 3.81599 2.04424 2.9406 2.94004C2.05158 3.81526 1.36104 4.87504 0.923211 6.03738C0.492326 7.15192 0.191534 8.42349 0.109524 10.2832C0.0205692 12.1568 0 12.7516 0 17.5035C0 22.2554 0.0205692 22.8502 0.102579 24.7168C0.184589 26.5765 0.485647 27.855 0.916532 28.9629C1.36104 30.1388 2.05158 31.1917 2.9406 32.0669C3.81599 32.9558 4.87597 33.6464 6.03854 34.0839C7.15328 34.5147 8.4251 34.8154 10.2854 34.8974C12.1521 34.9797 12.7473 35 17.5001 35C22.253 35 22.8479 34.9797 24.7149 34.8974C26.5749 34.8154 27.8537 34.5147 28.9615 34.0839C31.3141 33.1745 33.1741 31.3148 34.0837 28.9629C34.5144 27.8484 34.8154 26.5765 34.8974 24.7168C34.9794 22.8502 35 22.2554 35 17.5035C35 12.7516 34.9931 12.1568 34.911 10.2901ZM31.7586 24.5801C31.6833 26.2894 31.3961 27.2124 31.1568 27.8278C30.5685 29.3526 29.3582 30.5627 27.8331 31.1508C27.2176 31.3901 26.2877 31.6772 24.5848 31.7523C22.7383 31.8345 22.1846 31.8548 17.5138 31.8548C12.8429 31.8548 12.2822 31.8345 10.4425 31.7523C8.73284 31.6772 7.80963 31.3901 7.19415 31.1508C6.43523 30.8704 5.74442 30.426 5.18371 29.8448C4.60243 29.2772 4.15792 28.5935 3.87743 27.8347C3.63808 27.2194 3.35091 26.2894 3.27585 24.587C3.19357 22.7409 3.17327 22.187 3.17327 17.5171C3.17327 12.8472 3.19357 12.2866 3.27585 10.4474C3.35091 8.73811 3.63808 7.81508 3.87743 7.19972C4.15792 6.44068 4.60243 5.75027 5.19066 5.1894C5.75805 4.60823 6.44191 4.16381 7.2011 3.88364C7.81657 3.64433 8.74673 3.35722 10.4494 3.2819C12.2959 3.19991 12.8499 3.17934 17.5204 3.17934C22.1982 3.17934 22.752 3.19991 24.5917 3.2819C26.3014 3.35722 27.2246 3.64433 27.84 3.88364C28.599 4.16381 29.2898 4.60823 29.8505 5.1894C30.4318 5.75695 30.8763 6.44068 31.1568 7.19972C31.3961 7.81508 31.6833 8.74479 31.7586 10.4474C31.8406 12.2935 31.8612 12.8472 31.8612 17.5171C31.8612 22.187 31.8406 22.734 31.7586 24.5801Z" fill="white"/>
<path d="M17.5 8.75C12.6694 8.75 8.75 12.6691 8.75 17.5C8.75 22.3309 12.6694 26.25 17.5 26.25C22.3309 26.25 26.25 22.3309 26.25 17.5C26.25 12.6691 22.3309 8.75 17.5 8.75ZM17.5 23.1759C14.3661 23.1759 11.8241 20.6341 11.8241 17.5C11.8241 14.3659 14.3661 11.8241 17.5 11.8241C20.6341 11.8241 23.1759 14.3659 23.1759 17.5C23.1759 20.6341 20.6341 23.1759 17.5 23.1759Z" fill="white"/>
<path d="M29.75 7.875C29.75 9.32461 28.5747 10.5 27.1248 10.5C25.6753 10.5 24.5 9.32461 24.5 7.875C24.5 6.42505 25.6753 5.25 27.1248 5.25C28.5747 5.25 29.75 6.42505 29.75 7.875Z" fill="white"/>
</svg>
