<svg width="170" height="33" viewBox="0 0 170 33" fill="none" xmlns="http://www.w3.org/2000/svg">
<path d="M6.665 25C6.01167 25 5.49833 24.825 5.125 24.475C4.75167 24.1017 4.495 23.5183 4.355 22.725L0.19 0.499998H2.745L6.56 21.64H6.595L12.755 1.795H13.84C14.26 1.795 14.5983 1.92333 14.855 2.18C15.1117 2.41333 15.3217 2.78667 15.485 3.3L20.945 21.64H20.98L24.795 0.499998H27.35L23.185 22.725C23.045 23.5183 22.7883 24.1017 22.415 24.475C22.0417 24.825 21.5283 25 20.875 25H19.825L13.875 5.26H13.84L7.715 25H6.665ZM35.7366 25.28C33.7766 25.28 32.2016 24.7083 31.0116 23.565C29.8216 22.3983 29.2266 20.8583 29.2266 18.945V13.94C29.2266 11.9333 29.8216 10.3233 31.0116 9.11C32.2016 7.87333 33.7766 7.255 35.7366 7.255H38.6066C40.4733 7.255 41.9783 7.85 43.1216 9.04C44.2649 10.23 44.8366 11.805 44.8366 13.765V16.845H31.7466V18.945C31.7466 20.1583 32.1083 21.15 32.8316 21.92C33.5783 22.6667 34.5466 23.04 35.7366 23.04H38.3966C39.5633 23.04 40.5083 22.725 41.2316 22.095C41.9549 21.4417 42.3166 20.5783 42.3166 19.505H44.7666C44.7666 21.2317 44.1833 22.6317 43.0166 23.705C41.8499 24.755 40.3099 25.28 38.3966 25.28H35.7366ZM42.3166 14.675V13.765C42.3166 12.4817 41.9783 11.455 41.3016 10.685C40.6249 9.89167 39.7266 9.495 38.6066 9.495H35.7366C34.5466 9.495 33.5783 9.90333 32.8316 10.72C32.1083 11.5367 31.7466 12.61 31.7466 13.94V14.675H42.3166ZM56.1331 25.28C55.3631 25.28 54.5465 25.0467 53.6831 24.58C52.8198 24.09 52.1548 23.4833 51.6881 22.76V25H49.2381V0.499998H51.7581V9.6C52.2715 8.87667 52.9248 8.305 53.7181 7.885C54.5348 7.465 55.3748 7.255 56.2381 7.255H58.7231C59.9131 7.255 60.9631 7.535 61.8731 8.095C62.8065 8.63167 63.5298 9.40167 64.0431 10.405C64.5798 11.385 64.8481 12.5167 64.8481 13.8V18.315C64.8481 19.6917 64.5798 20.905 64.0431 21.955C63.5298 23.005 62.7948 23.8217 61.8381 24.405C60.9048 24.9883 59.8198 25.28 58.5831 25.28H56.1331ZM58.5131 23.04C59.6331 23.04 60.5431 22.6083 61.2431 21.745C61.9665 20.8583 62.3281 19.715 62.3281 18.315V13.8C62.3281 12.5167 61.9781 11.4783 61.2781 10.685C60.6015 9.89167 59.7265 9.495 58.6531 9.495H56.3081C55.0948 9.495 54.0565 9.93833 53.1931 10.825C52.3298 11.7117 51.8515 12.8783 51.7581 14.325V18.595C51.8048 19.4117 52.0381 20.1583 52.4581 20.835C52.8781 21.5117 53.4148 22.0483 54.0681 22.445C54.7215 22.8417 55.4098 23.04 56.1331 23.04H58.5131ZM100.716 0.499998H112.581C114.401 0.499998 115.859 1.01333 116.956 2.04C118.076 3.06667 118.636 4.42 118.636 6.1V9.705C118.636 11.5017 118.041 12.96 116.851 14.08C115.661 15.1767 114.098 15.725 112.161 15.725H103.306V25H100.716V0.499998ZM112.091 13.415C113.281 13.415 114.238 13.0767 114.961 12.4C115.684 11.7 116.046 10.7783 116.046 9.635V6.03C116.046 5.07333 115.719 4.30333 115.066 3.72C114.436 3.11333 113.584 2.81 112.511 2.81H103.306V13.415H112.091ZM122.417 7.535H124.867V10.23C125.334 9.41333 126.034 8.74833 126.967 8.235C127.924 7.72167 128.915 7.465 129.942 7.465H131.482V9.74H129.942C128.449 9.74 127.235 10.2183 126.302 11.175C125.392 12.1083 124.937 13.3567 124.937 14.92V25H122.417V7.535ZM140.121 25.28C138.161 25.28 136.586 24.6733 135.396 23.46C134.206 22.2467 133.611 20.6483 133.611 18.665V13.87C133.611 11.8867 134.206 10.2883 135.396 9.075C136.61 7.86167 138.208 7.255 140.191 7.255H143.061C145.045 7.255 146.631 7.86167 147.821 9.075C149.035 10.2883 149.641 11.8867 149.641 13.87V18.665C149.641 20.6483 149.035 22.2467 147.821 23.46C146.608 24.6733 144.998 25.28 142.991 25.28H140.121ZM142.991 23.04C144.251 23.04 145.255 22.6433 146.001 21.85C146.748 21.0333 147.121 19.9717 147.121 18.665V13.87C147.121 12.5633 146.748 11.5133 146.001 10.72C145.255 9.90333 144.275 9.495 143.061 9.495H140.191C138.978 9.495 137.998 9.90333 137.251 10.72C136.505 11.5133 136.131 12.5633 136.131 13.87V18.665C136.131 19.995 136.493 21.0567 137.216 21.85C137.94 22.6433 138.908 23.04 140.121 23.04H142.991ZM159.942 32.105C158.402 32.105 157.131 31.685 156.127 30.845C155.124 30.0283 154.564 28.9433 154.447 27.59H156.967C157.061 28.29 157.376 28.85 157.912 29.27C158.472 29.7133 159.149 29.935 159.942 29.935H162.847C164.061 29.935 164.994 29.5267 165.647 28.71C166.324 27.9167 166.662 26.7967 166.662 25.35V22.655C166.149 23.355 165.472 23.9267 164.632 24.37C163.816 24.79 163.022 25 162.252 25H159.697C158.507 25 157.446 24.72 156.512 24.16C155.579 23.6 154.856 22.8183 154.342 21.815C153.829 20.8117 153.572 19.645 153.572 18.315V14.22C153.572 12.1433 154.167 10.4633 155.357 9.18C156.571 7.89667 158.157 7.255 160.117 7.255H162.567C163.314 7.255 164.084 7.465 164.877 7.885C165.671 8.305 166.289 8.84167 166.732 9.495V7.535H169.182V25.35C169.182 27.4733 168.622 29.13 167.502 30.32C166.382 31.51 164.831 32.105 162.847 32.105H159.942ZM162.252 22.76C163.419 22.76 164.411 22.305 165.227 21.395C166.067 20.4617 166.546 19.2833 166.662 17.86V13.555C166.569 12.365 166.126 11.3967 165.332 10.65C164.562 9.88 163.641 9.495 162.567 9.495H160.187C158.951 9.495 157.959 9.92667 157.212 10.79C156.466 11.6533 156.092 12.7967 156.092 14.22V18.315C156.092 19.6217 156.431 20.695 157.107 21.535C157.807 22.3517 158.694 22.76 159.767 22.76H162.252Z" fill="black"/>
<path d="M69.3325 0.499998H74.1625V25H69.3325V0.499998ZM84.8804 4.7H77.1104V0.499998H97.4804V4.7H89.7104V25H84.8804V4.7Z" fill="#007CED"/>
</svg>
