<svg width="145" height="28" viewBox="0 0 145 28" fill="none" xmlns="http://www.w3.org/2000/svg">
<path d="M5.57 21C5.01 21 4.57 20.85 4.25 20.55C3.93 20.23 3.71 19.73 3.59 19.05L0.0200001 -1.43051e-06H2.21L5.48 18.12H5.51L10.79 1.11H11.72C12.08 1.11 12.37 1.22 12.59 1.44C12.81 1.64 12.99 1.96 13.13 2.4L17.81 18.12H17.84L21.11 -1.43051e-06H23.3L19.73 19.05C19.61 19.73 19.39 20.23 19.07 20.55C18.75 20.85 18.31 21 17.75 21H16.85L11.75 4.08H11.72L6.47 21H5.57ZM30.4885 21.24C28.8085 21.24 27.4585 20.75 26.4385 19.77C25.4185 18.77 24.9085 17.45 24.9085 15.81V11.52C24.9085 9.8 25.4185 8.42 26.4385 7.38C27.4585 6.32 28.8085 5.79 30.4885 5.79H32.9485C34.5485 5.79 35.8385 6.3 36.8185 7.32C37.7985 8.34 38.2885 9.69 38.2885 11.37V14.01H27.0685V15.81C27.0685 16.85 27.3785 17.7 27.9985 18.36C28.6385 19 29.4685 19.32 30.4885 19.32H32.7685C33.7685 19.32 34.5785 19.05 35.1985 18.51C35.8185 17.95 36.1285 17.21 36.1285 16.29H38.2285C38.2285 17.77 37.7285 18.97 36.7285 19.89C35.7285 20.79 34.4085 21.24 32.7685 21.24H30.4885ZM36.1285 12.15V11.37C36.1285 10.27 35.8385 9.39 35.2585 8.73C34.6785 8.05 33.9085 7.71 32.9485 7.71H30.4885C29.4685 7.71 28.6385 8.06 27.9985 8.76C27.3785 9.46 27.0685 10.38 27.0685 11.52V12.15H36.1285ZM47.9713 21.24C47.3113 21.24 46.6113 21.04 45.8713 20.64C45.1313 20.22 44.5613 19.7 44.1613 19.08V21H42.0613V-1.43051e-06H44.2213V7.8C44.6613 7.18 45.2213 6.69 45.9013 6.33C46.6013 5.97 47.3213 5.79 48.0613 5.79H50.1913C51.2113 5.79 52.1113 6.03 52.8913 6.51C53.6913 6.97 54.3113 7.63 54.7513 8.49C55.2113 9.33 55.4413 10.3 55.4413 11.4V15.27C55.4413 16.45 55.2113 17.49 54.7513 18.39C54.3113 19.29 53.6813 19.99 52.8613 20.49C52.0613 20.99 51.1313 21.24 50.0713 21.24H47.9713ZM50.0113 19.32C50.9713 19.32 51.7513 18.95 52.3513 18.21C52.9713 17.45 53.2813 16.47 53.2813 15.27V11.4C53.2813 10.3 52.9813 9.41 52.3813 8.73C51.8013 8.05 51.0513 7.71 50.1313 7.71H48.1213C47.0813 7.71 46.1913 8.09 45.4513 8.85C44.7113 9.61 44.3013 10.61 44.2213 11.85V15.51C44.2613 16.21 44.4613 16.85 44.8213 17.43C45.1813 18.01 45.6413 18.47 46.2013 18.81C46.7613 19.15 47.3513 19.32 47.9713 19.32H50.0113ZM86.1852 -1.43051e-06H96.3552C97.9152 -1.43051e-06 99.1652 0.439999 100.105 1.32C101.065 2.2 101.545 3.36 101.545 4.8V7.89C101.545 9.43 101.035 10.68 100.015 11.64C98.9952 12.58 97.6552 13.05 95.9952 13.05H88.4052V21H86.1852V-1.43051e-06ZM95.9352 11.07C96.9552 11.07 97.7752 10.78 98.3952 10.2C99.0152 9.6 99.3252 8.81 99.3252 7.83V4.74C99.3252 3.92 99.0452 3.26 98.4852 2.76C97.9452 2.24 97.2152 1.98 96.2952 1.98H88.4052V11.07H95.9352ZM104.786 6.03H106.886V8.34C107.286 7.64 107.886 7.07 108.686 6.63C109.506 6.19 110.356 5.97 111.236 5.97H112.556V7.92H111.236C109.956 7.92 108.916 8.33 108.116 9.15C107.336 9.95 106.946 11.02 106.946 12.36V21H104.786V6.03ZM119.961 21.24C118.281 21.24 116.931 20.72 115.911 19.68C114.891 18.64 114.381 17.27 114.381 15.57V11.46C114.381 9.76 114.891 8.39 115.911 7.35C116.951 6.31 118.321 5.79 120.021 5.79H122.481C124.181 5.79 125.541 6.31 126.561 7.35C127.601 8.39 128.121 9.76 128.121 11.46V15.57C128.121 17.27 127.601 18.64 126.561 19.68C125.521 20.72 124.141 21.24 122.421 21.24H119.961ZM122.421 19.32C123.501 19.32 124.361 18.98 125.001 18.3C125.641 17.6 125.961 16.69 125.961 15.57V11.46C125.961 10.34 125.641 9.44 125.001 8.76C124.361 8.06 123.521 7.71 122.481 7.71H120.021C118.981 7.71 118.141 8.06 117.501 8.76C116.861 9.44 116.541 10.34 116.541 11.46V15.57C116.541 16.71 116.851 17.62 117.471 18.3C118.091 18.98 118.921 19.32 119.961 19.32H122.421ZM136.951 27.09C135.631 27.09 134.541 26.73 133.681 26.01C132.821 25.31 132.341 24.38 132.241 23.22H134.401C134.481 23.82 134.751 24.3 135.211 24.66C135.691 25.04 136.271 25.23 136.951 25.23H139.441C140.481 25.23 141.281 24.88 141.841 24.18C142.421 23.5 142.711 22.54 142.711 21.3V18.99C142.271 19.59 141.691 20.08 140.971 20.46C140.271 20.82 139.591 21 138.931 21H136.741C135.721 21 134.811 20.76 134.011 20.28C133.211 19.8 132.591 19.13 132.151 18.27C131.711 17.41 131.491 16.41 131.491 15.27V11.76C131.491 9.98 132.001 8.54 133.021 7.44C134.061 6.34 135.421 5.79 137.101 5.79H139.201C139.841 5.79 140.501 5.97 141.181 6.33C141.861 6.69 142.391 7.15 142.771 7.71V6.03H144.871V21.3C144.871 23.12 144.391 24.54 143.431 25.56C142.471 26.58 141.141 27.09 139.441 27.09H136.951ZM138.931 19.08C139.931 19.08 140.781 18.69 141.481 17.91C142.201 17.11 142.611 16.1 142.711 14.88V11.19C142.631 10.17 142.251 9.34 141.571 8.7C140.911 8.04 140.121 7.71 139.201 7.71H137.161C136.101 7.71 135.251 8.08 134.611 8.82C133.971 9.56 133.651 10.54 133.651 11.76V15.27C133.651 16.39 133.941 17.31 134.521 18.03C135.121 18.73 135.881 19.08 136.801 19.08H138.931Z" fill="white"/>
<path d="M59.285 -1.43051e-06H63.425V21H59.285V-1.43051e-06ZM72.6118 3.6H65.9518V-1.43051e-06H83.4118V3.6H76.7518V21H72.6118V3.6Z" fill="#007CED"/>
</svg>
