<svg width="135" height="135" viewBox="0 0 135 135" fill="none" xmlns="http://www.w3.org/2000/svg">
<g clip-path="url(#clip0_151_2)">
<path d="M62.7612 47.9663V62.7612H47.9663C45.349 62.7612 43.2275 64.8826 43.2275 67.5C43.2275 70.1173 45.349 72.2388 47.9663 72.2388H62.7612V87.0337C62.7612 89.651 64.8826 91.7724 67.5 91.7724C70.1173 91.7724 72.2112 89.651 72.2112 87.0337V72.2388H87.0061C89.6235 72.2388 91.7449 70.1173 91.7449 67.5C91.7449 64.8826 89.6235 62.7612 87.0061 62.7612H72.2112V47.9663C72.2112 45.349 70.0898 43.2275 67.5 43.2275C64.9102 43.2275 62.7612 45.349 62.7612 47.9663Z" fill="white"/>
<path d="M19.7541 19.7541C7.02551 32.5102 0 49.4541 0 67.5C0 85.5459 7.02551 102.49 19.7816 115.246C32.5102 127.974 49.4816 135 67.5 135C85.5184 135 102.49 127.974 115.246 115.218C127.974 102.49 135 85.5184 135 67.5C135 49.4816 127.974 32.5102 115.218 19.7541C102.49 7.02551 85.5459 0 67.5 0C49.4816 0 32.5102 7.02551 19.7541 19.7541ZM125.55 67.5C125.55 83.0112 119.516 97.5857 108.551 108.551C97.5857 119.516 83.0112 125.55 67.5 125.55C51.9888 125.55 37.4143 119.516 26.449 108.551C15.4837 97.5857 9.45 83.0112 9.45 67.5C9.45 51.9888 15.4837 37.4143 26.449 26.449C37.4143 15.4837 51.9888 9.45 67.5 9.45C83.0112 9.45 97.5857 15.4837 108.551 26.449C119.516 37.4143 125.55 51.9888 125.55 67.5Z" fill="white"/>
</g>
<defs>
<clipPath id="clip0_151_2">
<rect width="135" height="135" fill="white"/>
</clipPath>
</defs>
</svg>
