<svg width="35" height="35" viewBox="0 0 35 35" fill="none" xmlns="http://www.w3.org/2000/svg">
<path fill-rule="evenodd" clip-rule="evenodd" d="M7.53668 21.2C7.61199 21.2291 7.688 21.2496 7.76394 21.2622C7.84676 21.485 7.95376 21.773 8.0786 22.1098C8.38324 22.9319 8.79373 24.0439 9.21745 25.2037C10.0816 27.5692 10.9532 30.0076 11.1457 30.7057C11.384 31.5685 11.6359 32.1551 11.9109 32.5557C12.0531 32.7627 12.2175 32.9435 12.4099 33.0805C12.5068 33.1494 12.6091 33.2059 12.7159 33.248C12.7206 33.2499 12.7253 33.2517 12.73 33.2535C13.2806 33.4913 13.7826 33.3923 14.0969 33.2712C14.265 33.2062 14.4011 33.1281 14.4975 33.0647C14.5467 33.0322 14.5882 33.0021 14.6214 32.9765L14.6292 32.9706L19.4916 29.5011L25.1083 34.4279C25.191 34.5005 25.2815 34.5616 25.3772 34.6094C26.0519 34.9462 26.7054 35.0637 27.3199 34.9677C27.9336 34.8718 28.4207 34.5769 28.7834 34.2448C29.1385 33.9198 29.3794 33.5557 29.5292 33.2852C29.6058 33.147 29.6632 33.0247 29.7038 32.9312C29.7241 32.8842 29.7405 32.8437 29.7532 32.8112L29.7694 32.7683L29.7756 32.7513L29.7782 32.7442L29.7792 32.7409L29.7804 32.7377C29.8098 32.6533 29.8325 32.5659 29.848 32.4767L34.9754 2.89909C34.9917 2.8045 35 2.70828 35 2.61185C35 1.74569 34.7147 0.922065 34.0441 0.422283C33.4708 -0.00488203 32.8322 -0.0232678 32.4287 0.0117715C31.9933 0.0495864 31.5912 0.172558 31.3214 0.270806C31.181 0.321948 31.0632 0.371279 30.9784 0.408917C30.9357 0.427834 30.9008 0.444074 30.8746 0.456456L30.8552 0.465865L2.09945 13.3724L2.09574 13.374C2.07741 13.3817 2.05388 13.3917 2.02592 13.4041C1.97024 13.4289 1.89563 13.4638 1.80848 13.509C1.63854 13.5972 1.40011 13.7348 1.15544 13.9266C0.764564 14.2329 -0.134371 15.0716 0.0169968 16.4561C0.137758 17.5606 0.799077 18.2389 1.202 18.5651C1.42323 18.7443 1.63343 18.8722 1.7865 18.9557C1.8575 18.9943 2.00495 19.0628 2.06891 19.0927L2.08507 19.1002L7.53668 21.2ZM31.8615 3.18476L31.8575 3.18677C31.8431 3.19389 31.8288 3.2007 31.8142 3.20724L3.02361 16.1295C3.00857 16.1362 2.99343 16.1427 2.97819 16.1488L2.96217 16.1557C2.94375 16.1639 2.91274 16.1783 2.87383 16.1984C2.85175 16.2098 2.82871 16.2224 2.80523 16.2358C2.83749 16.2567 2.86837 16.2746 2.89581 16.2895C2.92215 16.3039 2.94225 16.3138 2.95324 16.3189L8.36009 18.4015C8.45905 18.4397 8.5513 18.4901 8.63598 18.5512L26.4891 6.59345L26.5058 6.58216C26.5187 6.57336 26.5359 6.56206 26.5564 6.54881C26.597 6.52253 26.6527 6.48755 26.7191 6.44887C26.843 6.37672 27.0414 6.26962 27.2647 6.19064C27.4201 6.13566 27.8786 5.98076 28.3742 6.16267C28.6802 6.27493 28.9969 6.51629 29.203 6.92515C29.3052 7.12828 29.3597 7.33233 29.3862 7.51912C29.4564 7.81337 29.4452 8.10394 29.3904 8.35479C29.272 8.89516 28.9403 9.31666 28.6383 9.63906C28.3796 9.91546 25.0326 13.608 21.7308 17.2533C20.0841 19.071 18.4545 20.871 17.2362 22.2163L16.4362 23.1002L26.5387 31.962C26.7704 32.0568 26.9074 32.0521 26.9707 32.0421C27.0462 32.0303 27.108 31.997 27.1711 31.9393C27.2417 31.8748 27.3034 31.7874 27.3495 31.7041L27.3514 31.7007L32.3245 3.01381C32.2507 3.03411 32.176 3.05828 32.1041 3.08446C32.0227 3.11413 31.9554 3.1424 31.911 3.16214C31.8889 3.17192 31.873 3.17934 31.8644 3.18344L31.8615 3.18476ZM17.304 27.5822L15.2884 25.8141L14.8001 29.3687L17.304 27.5822ZM13.4395 22.3059L15.4438 20.0919C16.6621 18.7464 18.292 16.9464 19.9389 15.1283L21.6121 13.2815L10.3944 20.7948L10.4546 20.9573C10.7603 21.7822 11.1726 22.899 11.5986 24.0651C11.9171 24.937 12.2502 25.8551 12.5535 26.7051L13.0405 23.161C13.0874 22.8193 13.2333 22.5236 13.4395 22.3059Z" fill="white"/>
</svg>
