<svg width="35" height="35" viewBox="0 0 35 35" fill="none" xmlns="http://www.w3.org/2000/svg">
<path d="M34.2062 8.43501C33.8124 9.67314 33.2816 10.7508 32.6166 11.7294L32.6443 11.6856C31.991 12.7745 31.2108 14.0326 30.3037 15.4598C29.5259 16.5866 29.1142 17.1699 29.0685 17.2098C28.8672 17.4621 28.7272 17.7713 28.6791 18.1111L28.6777 18.1213C28.717 18.4304 28.8599 18.7002 29.0685 18.9015L29.6518 19.5519C32.7727 22.7592 34.528 24.9701 34.9179 26.1844C34.9689 26.3186 34.9981 26.4731 34.9981 26.635C34.9981 26.9179 34.9077 27.179 34.7545 27.3933L34.7574 27.389C34.5008 27.6529 34.142 27.8163 33.7454 27.8163C33.7016 27.8163 33.6564 27.8148 33.6141 27.8104H33.6199H29.7831C29.7816 27.8104 29.7787 27.8104 29.7758 27.8104C29.2843 27.8104 28.8322 27.6383 28.4779 27.3525L28.4822 27.3554C27.966 26.9311 27.5066 26.4717 27.0954 25.9729L27.0822 25.9554C26.4104 25.1961 25.8145 24.5569 25.2943 24.0377C23.5618 22.3908 22.2834 21.5673 21.4589 21.5673C21.4283 21.5644 21.3933 21.5629 21.3568 21.5629C21.1162 21.5629 20.8916 21.6373 20.7064 21.7642L20.7108 21.7613C20.5591 21.9508 20.4672 22.1958 20.4672 22.4598C20.4672 22.5123 20.4702 22.5619 20.4774 22.6129V22.6071C20.4381 23.065 20.4147 23.5973 20.4147 24.1354C20.4147 24.309 20.4177 24.4811 20.422 24.6531V24.6283V26.3186C20.4366 26.3871 20.4454 26.4658 20.4454 26.5461C20.4454 26.899 20.2849 27.214 20.0341 27.4225L20.0327 27.424C19.4683 27.6821 18.8091 27.8338 18.1135 27.8338C17.9647 27.8338 17.8189 27.8265 17.6745 27.8133L17.6935 27.8148C15.3981 27.7711 13.2689 27.0988 11.4591 25.9656L11.5102 25.9948C9.30662 24.6561 7.48078 22.9133 6.08953 20.8542L6.05016 20.7929C4.72891 19.04 3.49661 17.0596 2.44661 14.9713L2.34453 14.7467C1.73057 13.5771 1.09474 12.1392 0.546406 10.6604L0.458906 10.3906C0.235781 9.72564 0.0739063 8.95272 0.00682292 8.1521L0.00390625 8.11564C0.00390625 7.37869 0.437517 7.01022 1.30474 7.01022H5.14016C5.17516 7.0073 5.21599 7.00585 5.25828 7.00585C5.61995 7.00585 5.95391 7.1298 6.21786 7.33835L6.21495 7.33543C6.50662 7.6548 6.72245 8.0471 6.82891 8.4846L6.83328 8.5021C7.53911 10.4956 8.28724 12.1698 9.14766 13.774L9.04995 13.5742C9.75286 14.9888 10.5302 16.2065 11.4168 17.3308L11.3833 17.2856C12.1611 18.2404 12.7677 18.7177 13.2033 18.7177C13.2164 18.7192 13.2324 18.7192 13.2499 18.7192C13.4658 18.7192 13.6539 18.6025 13.756 18.4275L13.7574 18.4246C13.8654 18.1475 13.9281 17.8252 13.9281 17.4898C13.9281 17.4183 13.9252 17.3469 13.9193 17.2769V17.2856V11.6288C13.8887 10.9623 13.7254 10.3396 13.4527 9.78105L13.4643 9.80876C13.2835 9.42376 13.0662 9.09126 12.8081 8.79522L12.8124 8.80105C12.5733 8.56189 12.4099 8.24835 12.3589 7.89835L12.3574 7.8896C12.3574 7.64168 12.4712 7.41855 12.6491 7.27272L12.6506 7.27126C12.827 7.10939 13.0633 7.01168 13.3214 7.01168H13.3331H19.3793C19.4114 7.0073 19.4479 7.00585 19.4858 7.00585C19.7702 7.00585 20.0254 7.13418 20.1945 7.33543L20.196 7.33689C20.3462 7.61105 20.4352 7.93918 20.4352 8.28626C20.4352 8.34168 20.4322 8.39564 20.4279 8.4496V8.4423V15.9863C20.4249 16.0213 20.4235 16.0621 20.4235 16.1029C20.4235 16.3713 20.4979 16.6236 20.6262 16.8379L20.6233 16.8321C20.7297 16.9896 20.9077 17.0917 21.1089 17.0917H21.1104C21.367 17.0742 21.6004 16.9896 21.7972 16.8554L21.7929 16.8583C22.1895 16.5856 22.5308 16.275 22.8268 15.9236L22.8327 15.9163C23.7179 14.9158 24.5345 13.8104 25.2462 12.635L25.3031 12.5329C25.8047 11.7017 26.3472 10.6779 26.8387 9.62647L26.9291 9.4121L27.5795 8.11126C27.8056 7.46085 28.4122 7.00293 29.1254 7.00293C29.1531 7.00293 29.1808 7.00293 29.2085 7.00439H29.2041H33.041C34.0774 7.00439 34.4663 7.48126 34.2077 8.43501H34.2062Z" fill="white"/>
</svg>
